# xmcd
#
# Track frame offsets: 
#        150
#        16047
#        32952
#        53417
#        70455
#        83567
#        100260
#        116515
#        139182
#        165130
#        185887
#        207142
#        223717
#
# Disc length: 3355 seconds
#
# Revision: 3
# Processed by: cddbd v1.5.2PL0 Copyright (c) Steve Scherf et al.
# Submitted via: ExactAudioCopyFreeDBPlugin 1.0
#
DISCID=ab0d190d
DTITLE=Mary-Chapin Carpenter - Stones In The Road
DYEAR=1994
DGENRE=Country
TTITLE0=Why Walk When You Can Fly
TTITLE1=House Of Cards
TTITLE2=Stones In The Road
TTITLE3=A Keeper For Every Flame
TTITLE4=Tender When I Want To Be
TTITLE5=Shut Up And Kiss Me
TTITLE6=The Last Word
TTITLE7=The End Of My Pirate Days
TTITLE8=John Doe No 24
TTITLE9=Jubilee
TTITLE10=Outside Looking
TTITLE11=Where Time Stands Still
TTITLE12=This Is Love
EXTD=
EXTT0=
EXTT1=
EXTT2=
EXTT3=
EXTT4=
EXTT5=
EXTT6=
EXTT7=
EXTT8=
EXTT9=
EXTT10=
EXTT11=
EXTT12=
PLAYORDER=
